<?xml version="1.0" encoding="UTF-8"?>
<svg xmlns="http://www.w3.org/2000/svg" xmlns:xlink="http://www.w3.org/1999/xlink" width="32pt" height="32pt" viewBox="0 0 32 32" version="1.1">
<g id="surface9974114">
<path style="fill-rule:nonzero;fill:rgb(100%,100%,100%);fill-opacity:1;stroke-width:2;stroke-linecap:butt;stroke-linejoin:round;stroke:rgb(80%,80%,80%);stroke-opacity:1;stroke-miterlimit:10;" d="M 86 78.272418 L 133.193444 31.078974 L 140.921026 38.806556 L 93.727582 86 L 140.921026 133.193444 L 133.193444 140.921026 L 86 93.727582 L 38.806556 140.921026 L 31.078974 133.193444 L 78.272418 86 L 31.078974 38.806556 L 38.806556 31.078974 Z M 86 78.272418 " transform="matrix(0.184,0,0,0.184,0.176,0.176)"/>
<path style=" stroke:none;fill-rule:nonzero;fill:rgb(100%,100%,100%);fill-opacity:1;" d="M 7.316406 5.894531 L 5.894531 7.316406 L 14.578125 16 L 5.894531 24.683594 L 7.316406 26.105469 L 16 17.421875 L 24.683594 26.105469 L 26.105469 24.683594 L 17.421875 16 L 26.105469 7.316406 L 24.683594 5.894531 L 16 14.578125 Z M 7.316406 5.894531 "/>
</g>
</svg>
