<?xml version="1.0" encoding="UTF-8"?>
<svg xmlns="http://www.w3.org/2000/svg" xmlns:xlink="http://www.w3.org/1999/xlink" width="24pt" height="24pt" viewBox="0 0 24 24" version="1.1">
<g id="surface9963240">
<path style="fill-rule:nonzero;fill:rgb(100%,100%,100%);fill-opacity:1;stroke-width:2;stroke-linecap:butt;stroke-linejoin:round;stroke:rgb(80%,80%,80%);stroke-opacity:1;stroke-miterlimit:10;" d="M 90.132699 14.328804 C 91.887681 14.328804 93.387908 15.602582 93.670969 17.329257 L 95.709013 29.557518 C 99.19067 30.151947 102.559103 31.086051 105.814312 32.274909 L 113.71173 22.707428 C 114.81567 21.348732 116.740489 21.009058 118.269022 21.886549 L 125.402174 26.019248 C 126.9024 26.868433 127.581748 28.708333 126.959013 30.350091 L 122.62817 41.955616 C 125.317255 44.191803 127.808197 46.682745 130.044384 49.37183 L 141.649909 45.040987 C 143.263361 44.418252 145.131567 45.069293 145.980752 46.597826 L 150.113451 53.730978 C 150.990942 55.259511 150.651268 57.18433 149.292572 58.28827 L 139.725091 66.185688 C 140.913949 69.440897 141.848053 72.80933 142.442482 76.290987 L 154.670743 78.329031 C 156.397418 78.612092 157.671196 80.112319 157.671196 81.867301 L 157.671196 90.132699 C 157.671196 91.887681 156.397418 93.387908 154.670743 93.670969 L 142.442482 95.709013 C 141.848053 99.19067 140.913949 102.559103 139.725091 105.814312 L 149.292572 113.71173 C 150.651268 114.81567 150.990942 116.740489 150.113451 118.269022 L 145.980752 125.402174 C 145.131567 126.9024 143.291667 127.581748 141.649909 126.959013 L 130.044384 122.62817 C 127.808197 125.317255 125.317255 127.808197 122.62817 130.044384 L 126.959013 141.649909 C 127.581748 143.263361 126.930707 145.131567 125.402174 145.980752 L 118.269022 150.113451 C 116.740489 150.990942 114.81567 150.651268 113.71173 149.292572 L 105.814312 139.725091 C 102.559103 140.913949 99.19067 141.848053 95.709013 142.442482 L 93.670969 154.670743 C 93.387908 156.397418 91.887681 157.671196 90.132699 157.671196 L 81.867301 157.671196 C 80.112319 157.671196 78.612092 156.397418 78.329031 154.670743 L 76.290987 142.442482 C 72.80933 141.848053 69.440897 140.913949 66.185688 139.725091 L 58.28827 149.292572 C 57.18433 150.651268 55.259511 150.990942 53.730978 150.113451 L 46.597826 145.980752 C 45.0976 145.131567 44.418252 143.291667 45.040987 141.649909 L 49.37183 130.044384 C 46.682745 127.808197 44.191803 125.317255 41.955616 122.62817 L 30.350091 126.959013 C 28.736639 127.581748 26.868433 126.930707 26.019248 125.402174 L 21.886549 118.269022 C 21.009058 116.740489 21.348732 114.81567 22.707428 113.71173 L 32.274909 105.814312 C 31.086051 102.559103 30.151947 99.19067 29.557518 95.709013 L 17.329257 93.670969 C 15.602582 93.387908 14.328804 91.887681 14.328804 90.132699 L 14.328804 81.867301 C 14.328804 80.112319 15.602582 78.612092 17.329257 78.329031 L 29.557518 76.290987 C 30.151947 72.80933 31.086051 69.440897 32.274909 66.185688 L 22.707428 58.28827 C 21.348732 57.18433 21.009058 55.259511 21.886549 53.730978 L 26.019248 46.597826 C 26.868433 45.069293 28.736639 44.418252 30.350091 45.040987 L 41.955616 49.37183 C 44.191803 46.682745 46.682745 44.191803 49.37183 41.955616 L 45.040987 30.350091 C 44.418252 28.736639 45.069293 26.868433 46.597826 26.019248 L 53.730978 21.886549 C 55.259511 21.009058 57.18433 21.348732 58.28827 22.707428 L 66.185688 32.274909 C 69.440897 31.086051 72.80933 30.151947 76.290987 29.557518 L 78.329031 17.329257 C 78.612092 15.602582 80.112319 14.328804 81.867301 14.328804 Z M 43.002944 86 C 43.002944 91.293252 43.993659 96.303442 45.720335 100.973958 L 64.855299 89.934556 C 64.62885 88.632473 64.487319 87.330389 64.487319 86 C 64.515625 76.885417 70.261775 68.789855 78.838542 65.73279 L 78.838542 43.653986 C 58.458107 47.050725 43.002944 64.62885 43.002944 86 Z M 93.161458 65.761096 C 101.738225 68.789855 107.484375 76.913723 107.512681 86 C 107.484375 87.302083 107.37115 88.632473 107.116395 89.90625 L 126.279665 101.002264 C 128.006341 96.331748 128.997056 91.293252 128.997056 86 C 128.997056 64.62885 113.541893 47.050725 93.161458 43.653986 Z M 86 107.512681 C 80.876585 107.484375 75.923007 105.672781 72.016757 102.332654 L 52.825181 113.428668 C 60.694293 122.939538 72.611187 128.997056 86 128.997056 C 99.388813 128.997056 111.305707 122.939538 119.174819 113.428668 L 99.954937 102.332654 C 96.076993 105.644475 91.123415 107.484375 86 107.512681 Z M 86 107.512681 " transform="matrix(0.138,0,0,0.138,0.132,0.132)"/>
<path style=" stroke:none;fill-rule:nonzero;fill:rgb(100%,100%,100%);fill-opacity:1;" d="M 11.429688 2.109375 C 11.1875 2.109375 10.980469 2.285156 10.941406 2.523438 L 10.660156 4.210938 C 10.179688 4.292969 9.714844 4.421875 9.265625 4.585938 L 8.175781 3.265625 C 8.023438 3.078125 7.757812 3.03125 7.546875 3.152344 L 6.5625 3.722656 C 6.351562 3.839844 6.261719 4.097656 6.347656 4.320312 L 6.945312 5.921875 C 6.574219 6.230469 6.230469 6.574219 5.921875 6.945312 L 4.320312 6.347656 C 4.097656 6.261719 3.839844 6.351562 3.722656 6.5625 L 3.152344 7.546875 C 3.03125 7.757812 3.078125 8.023438 3.265625 8.175781 L 4.585938 9.265625 C 4.421875 9.714844 4.292969 10.179688 4.210938 10.660156 L 2.523438 10.941406 C 2.285156 10.980469 2.109375 11.1875 2.109375 11.429688 L 2.109375 12.570312 C 2.109375 12.8125 2.285156 13.019531 2.523438 13.058594 L 4.210938 13.339844 C 4.292969 13.820312 4.421875 14.285156 4.585938 14.734375 L 3.265625 15.824219 C 3.078125 15.976562 3.03125 16.242188 3.152344 16.453125 L 3.722656 17.4375 C 3.839844 17.648438 4.097656 17.738281 4.320312 17.652344 L 5.921875 17.054688 C 6.230469 17.425781 6.574219 17.769531 6.945312 18.078125 L 6.347656 19.679688 C 6.261719 19.90625 6.355469 20.160156 6.5625 20.277344 L 7.546875 20.847656 C 7.757812 20.96875 8.023438 20.921875 8.175781 20.734375 L 9.265625 19.414062 C 9.714844 19.578125 10.179688 19.707031 10.660156 19.789062 L 10.941406 21.476562 C 10.980469 21.714844 11.1875 21.890625 11.429688 21.890625 L 12.570312 21.890625 C 12.8125 21.890625 13.019531 21.714844 13.058594 21.476562 L 13.339844 19.789062 C 13.820312 19.707031 14.285156 19.578125 14.734375 19.414062 L 15.824219 20.734375 C 15.976562 20.921875 16.242188 20.96875 16.453125 20.847656 L 17.4375 20.277344 C 17.648438 20.160156 17.738281 19.902344 17.652344 19.679688 L 17.054688 18.078125 C 17.425781 17.769531 17.769531 17.425781 18.078125 17.054688 L 19.679688 17.652344 C 19.90625 17.738281 20.160156 17.644531 20.277344 17.4375 L 20.847656 16.453125 C 20.96875 16.242188 20.921875 15.976562 20.734375 15.824219 L 19.414062 14.734375 C 19.578125 14.285156 19.707031 13.820312 19.789062 13.339844 L 21.476562 13.058594 C 21.714844 13.019531 21.890625 12.8125 21.890625 12.570312 L 21.890625 11.429688 C 21.890625 11.1875 21.714844 10.980469 21.476562 10.941406 L 19.789062 10.660156 C 19.707031 10.179688 19.578125 9.714844 19.414062 9.265625 L 20.734375 8.175781 C 20.921875 8.023438 20.96875 7.757812 20.847656 7.546875 L 20.277344 6.5625 C 20.160156 6.351562 19.902344 6.261719 19.679688 6.347656 L 18.078125 6.945312 C 17.769531 6.574219 17.425781 6.230469 17.054688 5.921875 L 17.652344 4.320312 C 17.738281 4.09375 17.644531 3.839844 17.4375 3.722656 L 16.453125 3.152344 C 16.242188 3.03125 15.976562 3.078125 15.824219 3.265625 L 14.734375 4.585938 C 14.285156 4.421875 13.820312 4.292969 13.339844 4.210938 L 13.058594 2.523438 C 13.019531 2.285156 12.8125 2.109375 12.570312 2.109375 Z M 11.011719 6.15625 L 11.011719 9.203125 C 9.828125 9.625 9.035156 10.742188 9.03125 12 C 9.03125 12.183594 9.050781 12.363281 9.082031 12.542969 L 6.441406 14.066406 C 6.203125 13.421875 6.066406 12.730469 6.066406 12 C 6.066406 9.050781 8.199219 6.625 11.011719 6.15625 Z M 12.988281 6.15625 C 15.800781 6.625 17.933594 9.050781 17.933594 12 C 17.933594 12.730469 17.796875 13.425781 17.558594 14.070312 L 14.914062 12.539062 C 14.949219 12.363281 14.964844 12.179688 14.96875 12 C 14.964844 10.746094 14.171875 9.625 12.988281 9.207031 Z M 13.925781 14.253906 L 16.578125 15.785156 C 15.492188 17.097656 13.847656 17.933594 12 17.933594 C 10.152344 17.933594 8.507812 17.097656 7.421875 15.785156 L 10.070312 14.253906 C 10.609375 14.714844 11.292969 14.964844 12 14.96875 C 12.707031 14.964844 13.390625 14.710938 13.925781 14.253906 Z M 13.925781 14.253906 "/>
</g>
</svg>
